<?xml version="1.0" standalone="no"?><!DOCTYPE svg PUBLIC "-//W3C//DTD SVG 1.1//EN" "http://www.w3.org/Graphics/SVG/1.1/DTD/svg11.dtd"><svg t="1747125818899" class="icon" viewBox="0 0 1024 1024" version="1.1" xmlns="http://www.w3.org/2000/svg" p-id="13946" xmlns:xlink="http://www.w3.org/1999/xlink" width="200" height="200"><path d="M442.096941 497.709176l-19.350588-114.281411h349.274353a28.867765 28.867765 0 0 0 23.009882-46.290824l-131.222588-139.851294 80.549647-114.371765a28.882824 28.882824 0 0 0-23.205647-46.049882h-372.751059a43.294118 43.294118 0 0 0-75.550117 28.882824l82.688 431.796705c-154.759529-0.165647 86.558118 0.165647 86.558117 0.165647z" fill="#2D84FF" p-id="13947"></path><path d="M987.392 927.819294h-36.577882v-226.951529a36.592941 36.592941 0 0 0-36.592942-36.592941h-105.261176V534.889412a36.577882 36.577882 0 0 0-36.592941-36.592941c-1.505882-1.505882-519.920941 0.707765-520.794353-0.602353a36.577882 36.577882 0 0 0-36.592941 36.547764v130.017883h-105.321412a36.532706 36.532706 0 0 0-36.517647 36.577882v226.966588h-36.592941a36.592941 36.592941 0 0 0 0 73.155765h248.033882l454.776471 0.572235a37.150118 37.150118 0 0 0 6.52047-0.572235h243.260236a36.592941 36.592941 0 0 0-1.731765-73.155765z" fill="#A6CEFE" p-id="13948"></path><path d="M393.863529 671.397647m0 30.117647l0 159.864471q0 30.117647-30.117647 30.117647l-3.011764 0q-30.117647 0-30.117647-30.117647l0-159.864471q0-30.117647 30.117647-30.117647l3.011764 0q30.117647 0 30.117647 30.117647Z" fill="#6DAAFF" p-id="13949"></path><path d="M544.451765 671.397647m0 30.117647l0 159.864471q0 30.117647-30.117647 30.117647l-3.011765 0q-30.117647 0-30.117647-30.117647l0-159.864471q0-30.117647 30.117647-30.117647l3.011765 0q30.117647 0 30.117647 30.117647Z" fill="#6DAAFF" p-id="13950"></path><path d="M695.04 671.397647m0 30.117647l0 159.864471q0 30.117647-30.117647 30.117647l-3.011765 0q-30.117647 0-30.117647-30.117647l0-159.864471q0-30.117647 30.117647-30.117647l3.011765 0q30.117647 0 30.117647 30.117647Z" fill="#6DAAFF" p-id="13951"></path></svg>