<?xml version="1.0" standalone="no"?><!DOCTYPE svg PUBLIC "-//W3C//DTD SVG 1.1//EN" "http://www.w3.org/Graphics/SVG/1.1/DTD/svg11.dtd"><svg t="1747746529700" class="icon" viewBox="0 0 1024 1024" version="1.1" xmlns="http://www.w3.org/2000/svg" p-id="7632" xmlns:xlink="http://www.w3.org/1999/xlink" width="200" height="200"><path d="M512 119.808c247.296 0 448 162.816 448 364.032s-200.704 364.032-448 364.032c-57.344 0-112.128-9.216-162.304-25.088-50.688 35.84-135.68 80.896-243.2 80.896-16.896 0-32.256-9.728-38.912-25.6s-3.584-33.28 8.192-45.568c1.024-0.512 55.296-59.392 81.408-128-57.856-61.44-92.672-137.728-92.672-221.184-0.512-200.192 200.192-363.52 447.488-363.52z m0 672.256c216.064 0 392.192-138.24 392.192-307.712S728.064 176.128 512 176.128s-392.192 138.24-392.192 307.712c0 65.536 26.624 129.024 77.312 182.272l24.064 25.6-12.288 32.768c-19.456 51.2-50.176 95.232-71.168 121.856 77.312-7.68 139.264-40.96 179.712-69.12l22.528-15.872 26.624 8.192c47.104 14.848 95.744 22.528 145.408 22.528z" fill="#13227a" p-id="7633"></path><path d="M551.424 638.464c-5.12 0-8.704 0-11.776-0.512-3.584-0.512-6.144-1.024-8.704-1.536-3.072-1.024-5.632-3.072-7.168-5.12-1.024-1.536-2.048-3.072-3.072-5.12v-0.512l-23.04-65.024H389.12L367.104 624.64c-0.512 2.048-2.048 4.096-3.072 6.144-1.536 2.048-3.584 3.584-6.656 5.12-2.56 1.024-5.12 2.048-8.704 2.048-3.072 0.512-6.656 0.512-11.264 0.512s-8.704 0-11.776-0.512c-4.608-0.512-8.192-2.048-10.752-4.608-2.048-2.048-4.608-5.632-4.096-11.264 0-3.072 1.024-6.656 2.56-10.752l97.792-270.336c1.024-2.56 2.56-5.12 4.096-7.168 2.048-2.048 4.608-3.584 8.192-4.608 2.56-1.024 5.632-1.536 9.216-1.536 3.072 0 7.168-0.512 11.776-0.512 5.12 0 9.216 0 12.8 0.512s7.168 1.024 9.728 1.536c3.584 1.024 6.144 2.56 8.192 5.12 2.048 2.048 3.072 4.608 4.096 7.168l97.792 270.336c1.536 4.096 2.048 7.68 2.56 10.752 0 4.608-1.536 8.704-4.608 11.776-2.56 2.048-6.144 3.584-10.752 4.096h-12.8z m-69.632-125.44l-38.4-110.08-37.888 110.08h76.288zM653.824 638.464c-4.096 0-7.68 0-10.24-0.512-3.072-0.512-5.632-1.024-7.68-1.536-3.072-1.024-5.632-3.072-7.68-5.632-1.536-2.56-2.56-5.12-2.56-8.192V343.04c0-3.072 1.024-6.144 2.56-8.192 1.536-2.56 4.096-4.096 7.68-5.12 2.048-0.512 4.608-1.024 7.68-1.536 3.072-0.512 6.144-0.512 10.24-0.512s7.68 0 10.752 0.512 5.632 1.024 7.68 1.536c3.072 1.024 5.632 3.072 7.68 5.632 1.536 2.56 2.56 5.12 2.56 8.192v279.552c0 3.072-1.024 5.632-2.56 8.192s-4.096 4.608-7.68 5.632c-2.048 0.512-4.608 1.536-7.68 1.536h-10.752z" fill="#13227a" p-id="7634"></path></svg>