<?xml version="1.0" standalone="no"?><!DOCTYPE svg PUBLIC "-//W3C//DTD SVG 1.1//EN" "http://www.w3.org/Graphics/SVG/1.1/DTD/svg11.dtd"><svg t="1747125372229" class="icon" viewBox="0 0 1088 1024" version="1.1" xmlns="http://www.w3.org/2000/svg" p-id="8683" xmlns:xlink="http://www.w3.org/1999/xlink" width="212.5" height="200"><path d="M478.919602 901.19213l-3.046879-6.21812H86.120962v-42.469759a339.94462 339.94462 0 0 1 309.724557-338.949721h1.492348c10.757348-1.05708 21.639058-1.55453 32.396406-1.55453h5.907214a252.269128 252.269128 0 0 0 137.296089-42.780666l15.5453-11.93879a254.258926 254.258926 0 0 0 98.868108-201.156182 257.803255 257.803255 0 0 0-515.60651 0 254.321108 254.321108 0 0 0 98.681564 200.969638 424.386689 424.386689 0 0 0-270.301676 395.472432v85.126063a42.905028 42.905028 0 0 0 43.029391 42.718484H530.405635l-14.239495-18.281273a306.118047 306.118047 0 0 1-37.246538-60.937576zM307.859121 375.947535a168.759777 168.759777 0 0 1-49.74496-120.009716 171.744474 171.744474 0 1 1 171.744474 170.252125 170.936119 170.936119 0 0 1-121.937333-50.553315z" fill="#3B5E99" p-id="8684"></path><path d="M1064.479961 691.392762H1038.426038a32.085499 32.085499 0 0 1-28.292446-21.079427l-16.167112-37.619626a31.712412 31.712412 0 0 1 5.098859-35.070197l18.65436-18.65436a22.323051 22.323051 0 0 0 0-31.401506l-31.0906-31.0906a22.074326 22.074326 0 0 0-31.0906 0l-18.65436 19.276172a31.712412 31.712412 0 0 1-35.25674 5.223221l-36.935633-15.296575a31.961137 31.961137 0 0 1-21.203789-28.292446v-26.862278a22.198688 22.198688 0 0 0-22.074326-21.514696h-44.148652a22.198688 22.198688 0 0 0-21.514695 21.514696v26.613553a32.14768 32.14768 0 0 1-21.079427 28.292446l-37.80617 15.5453a31.58805 31.58805 0 0 1-35.070196-5.223221l-19.276172-18.65436a22.074326 22.074326 0 0 0-31.0906 0l-31.0906 31.0906a22.074326 22.074326 0 0 0 0 31.0906l18.65436 18.65436a31.712412 31.712412 0 0 1 5.22322 34.821472l-15.296575 37.30872a31.961137 31.961137 0 0 1-28.292446 21.079427h-26.862278a22.198688 22.198688 0 0 0-22.198688 22.198688v44.148652a22.198688 22.198688 0 0 0 22.198688 22.074326h26.489191a32.520768 32.520768 0 0 1 28.292446 21.203789l15.296575 37.30872a31.712412 31.712412 0 0 1-4.787952 35.692009l-18.65436 18.65436a22.074326 22.074326 0 0 0 0 31.0906l31.0906 31.401506a22.385232 22.385232 0 0 0 31.0906 0l18.965266-18.65436a31.58805 31.58805 0 0 1 34.945834-5.098858l37.30872 15.296575a31.961137 31.961137 0 0 1 21.079427 28.292446v26.302647a22.198688 22.198688 0 0 0 22.198688 22.198689h44.148652a22.198688 22.198688 0 0 0 22.074326-22.198689v-26.053923a32.14768 32.14768 0 0 1 21.203789-28.292445l37.30872-15.296576a31.712412 31.712412 0 0 1 35.070197 5.098859l18.65436 18.965266a22.385232 22.385232 0 0 0 31.0906 0l31.0906-31.401506a22.074326 22.074326 0 0 0 0-31.0906l-18.65436-19.089629a31.650231 31.650231 0 0 1-5.223221-35.070196l15.296575-37.30872a32.14768 32.14768 0 0 1 28.292446-21.079427h26.489191a22.198688 22.198688 0 0 0 22.074326-22.198688v-44.148652a21.949964 21.949964 0 0 0-21.514695-22.696138z m-265.513723 154.831187a110.558173 110.558173 0 1 1 78.223949-32.334223 110.682536 110.682536 0 0 1-78.410493 32.520767z" fill="#6663D7" p-id="8685"></path></svg>