<?xml version="1.0" standalone="no"?><!DOCTYPE svg PUBLIC "-//W3C//DTD SVG 1.1//EN" "http://www.w3.org/Graphics/SVG/1.1/DTD/svg11.dtd"><svg t="1747125243528" class="icon" viewBox="0 0 1024 1024" version="1.1" xmlns="http://www.w3.org/2000/svg" p-id="5303" xmlns:xlink="http://www.w3.org/1999/xlink" width="200" height="200"><path d="M550.692571 971.264c-18.432-17.408-29.696-45.056-29.696-45.056l-27.136 28.672-104.448-93.696s-39.497143-21.504-130.048-10.752c-90.697143 10.752-122.368 57.856-122.368 57.856s104.448 97.28 360.448 97.28c34.816 0 59.392-1.024 87.552-5.12 4.096-1.024-14.848-10.752-34.377142-29.184z m-86.528-179.2c55.296 0-4.096-48.128 104.96-138.24 133.12-110.08 187.392-1.536 187.392-132.096V377.344S731.428571 272.896 504.100571 272.896C276.772571 276.48 219.428571 373.76 219.428571 373.76v169.472s-17.408 248.832 244.736 248.832z m468.992-284.672V276.48l21.504-10.752-21.504-10.752v-3.584h-3.657142L479.012571 20.48 14.189714 269.312l169.472 54.272s97.28-108.032 317.44-108.032 324.608 118.784 324.608 118.784l82.944-43.52v216.576c-10.752 3.584-28.672 10.752-28.672 39.424v93.696l39.424-54.272 43.52 57.856V550.4c-0.512 0-4.608-35.84-29.696-43.008zM844.068571 690.176a176.786286 176.786286 0 0 0-58.368-38.912 179.2 179.2 0 0 0-71.68-14.336 179.2 179.2 0 0 0-71.68 14.336 193.389714 193.389714 0 0 0-58.88 38.912c-16.896 16.384-30.208 35.84-39.497142 58.368a179.2 179.2 0 0 0-14.262858 71.68c0 25.088 4.608 49.152 14.336 71.68 9.728 22.528 23.04 41.984 39.424 58.88 16.822857 16.896 36.352 30.208 58.88 39.424 22.528 9.728 46.592 14.336 71.68 14.336 25.088 0 49.152-4.608 71.68-14.336 22.528-9.728 41.984-23.04 58.368-39.424 16.384-16.896 29.696-36.352 38.912-58.88a179.2 179.2 0 0 0 14.336-71.68 179.2 179.2 0 0 0-14.336-71.68 176.786286 176.786286 0 0 0-38.912-58.368z m-26.624 61.44l-28.16 60.416-23.552 50.688-24.576 53.248a28.306286 28.306286 0 0 1-14.336 14.336 27.794286 27.794286 0 0 1-25.6 0 43.593143 43.593143 0 0 1-7.168-4.608 26.770286 26.770286 0 0 1-7.168-9.728l-24.576-53.248-23.552-50.688-28.16-60.416a29.037714 29.037714 0 0 1-1.024-23.552 29.622857 29.622857 0 0 1 15.872-17.408 22.820571 22.820571 0 0 1 21.504 0 35.254857 35.254857 0 0 1 15.872 16.384l26.624 60.928 23.552 50.688 2.048 4.096 2.048-4.096 23.552-50.688 26.624-60.928a31.085714 31.085714 0 0 1 15.872-16.384 22.820571 22.820571 0 0 1 21.504 0 29.622857 29.622857 0 0 1 15.872 17.408 41.398857 41.398857 0 0 1-3.072 23.552z" fill="#F9434C" p-id="5304"></path></svg>