<?xml version="1.0" standalone="no"?><!DOCTYPE svg PUBLIC "-//W3C//DTD SVG 1.1//EN" "http://www.w3.org/Graphics/SVG/1.1/DTD/svg11.dtd"><svg t="1747554273058" class="icon" viewBox="0 0 1024 1024" version="1.1" xmlns="http://www.w3.org/2000/svg" p-id="4832" xmlns:xlink="http://www.w3.org/1999/xlink" width="200" height="200"><path d="M240 224m16 0l96 0q16 0 16 16l0 32q0 16-16 16l-96 0q-16 0-16-16l0-32q0-16 16-16Z" fill="#B6B6B6" p-id="4833"></path><path d="M432 224m16 0l96 0q16 0 16 16l0 32q0 16-16 16l-96 0q-16 0-16-16l0-32q0-16 16-16Z" fill="#B6B6B6" p-id="4834"></path><path d="M240 352m16 0l96 0q16 0 16 16l0 32q0 16-16 16l-96 0q-16 0-16-16l0-32q0-16 16-16Z" fill="#B6B6B6" p-id="4835"></path><path d="M432 352m16 0l96 0q16 0 16 16l0 32q0 16-16 16l-96 0q-16 0-16-16l0-32q0-16 16-16Z" fill="#B6B6B6" p-id="4836"></path><path d="M240 480m16 0l96 0q16 0 16 16l0 32q0 16-16 16l-96 0q-16 0-16-16l0-32q0-16 16-16Z" fill="#B6B6B6" p-id="4837"></path><path d="M432 480m16 0l96 0q16 0 16 16l0 32q0 16-16 16l-96 0q-16 0-16-16l0-32q0-16 16-16Z" fill="#B6B6B6" p-id="4838"></path><path d="M432 608m16 0l96 0q16 0 16 16l0 32q0 16-16 16l-96 0q-16 0-16-16l0-32q0-16 16-16Z" fill="#B6B6B6" p-id="4839"></path><path d="M432 736m16 0l96 0q16 0 16 16l0 32q0 16-16 16l-96 0q-16 0-16-16l0-32q0-16 16-16Z" fill="#B6B6B6" p-id="4840"></path><path d="M240 608m16 0l96 0q16 0 16 16l0 32q0 16-16 16l-96 0q-16 0-16-16l0-32q0-16 16-16Z" fill="#B6B6B6" p-id="4841"></path><path d="M704 320m16 0l64 0q16 0 16 16l0 16q0 16-16 16l-64 0q-16 0-16-16l0-16q0-16 16-16Z" fill="#B6B6B6" p-id="4842"></path><path d="M704 416m16 0l64 0q16 0 16 16l0 16q0 16-16 16l-64 0q-16 0-16-16l0-16q0-16 16-16Z" fill="#B6B6B6" p-id="4843"></path><path d="M240 736m16 0l96 0q16 0 16 16l0 32q0 16-16 16l-96 0q-16 0-16-16l0-32q0-16 16-16Z" fill="#B6B6B6" p-id="4844"></path><path d="M832 224H624v312a24.16 24.16 0 0 0 14.88 22.24 23.52 23.52 0 0 0 8.96 1.76 24 24 0 0 0 19.52-10.08 22.56 22.56 0 0 0 4.64-13.92V272h144a32 32 0 0 1 32 32v232a24 24 0 0 0 48 0V288a64 64 0 0 0-64-64z" fill="#B6B6B6" p-id="4845"></path><path d="M608 64H192a64 64 0 0 0-64 64v784H88a24 24 0 0 0 0 48h448a24 24 0 0 0 0-48H176V144a32 32 0 0 1 32-32h384a32 32 0 0 1 32 32v392a24 24 0 0 0 15.04 22.24 193.76 193.76 0 0 1 28.48-8.32 23.04 23.04 0 0 0 4.48-13.92V128a64 64 0 0 0-64-64z" fill="#B6B6B6" p-id="4846"></path><path d="M718.08 633.28A85.76 85.76 0 0 0 774.72 656a81.28 81.28 0 0 0 58.24-22.4 130.88 130.88 0 0 1 37.12 22.4A88 88 0 0 0 928 756.8a216.32 216.32 0 0 1 2.24 24.8A126.4 126.4 0 0 1 928 804.8a86.24 86.24 0 0 0-56.64 100A197.92 197.92 0 0 1 834.4 928a84.16 84.16 0 0 0-115.52 0 131.84 131.84 0 0 1-38.24-22.56 88 88 0 0 0-57.76-101.12 133.76 133.76 0 0 1-1.6-22.56 140 140 0 0 1 1.76-24.48 87.84 87.84 0 0 0 47.04-38.08 90.24 90.24 0 0 0 9.76-63.2 189.12 189.12 0 0 1 38.24-22.88m3.68-32a20.16 20.16 0 0 0-6.88 1.28A221.12 221.12 0 0 0 656 638.4a16 16 0 0 0-6.24 19.2 59.84 59.84 0 0 1-5.12 46.4A58.88 58.88 0 0 1 608 730.4c-0.96 0-0.96 0-1.76 0.96a24.96 24.96 0 0 0-11.52 13.12v0.96a193.28 193.28 0 0 0-2.72 36 161.6 161.6 0 0 0 3.36 34.56 16.96 16.96 0 0 0 12.64 16h0.96a57.12 57.12 0 0 1 41.76 69.44v2.4a17.28 17.28 0 0 0 5.28 18.88 157.12 157.12 0 0 0 59.84 36h6.24a19.68 19.68 0 0 0 14.08-6.08 52.8 52.8 0 0 1 41.12-18.4 58.72 58.72 0 0 1 41.44 19.2 17.44 17.44 0 0 0 12.16 6.24 13.44 13.44 0 0 0 6.24-0.96A220.64 220.64 0 0 0 896 924.48a16 16 0 0 0 6.08-19.36 62.08 62.08 0 0 1 5.28-46.56A59.84 59.84 0 0 1 944 832c0.8 0 0.8 0 1.6-0.8a24.8 24.8 0 0 0 11.52-13.28A176 176 0 0 0 960 780.8a276.16 276.16 0 0 0-4.32-36 16 16 0 0 0-13.28-14.88 57.76 57.76 0 0 1-42.4-69.6v-2.88a16 16 0 0 0-5.28-19.04 162.56 162.56 0 0 0-60-36.16 18.56 18.56 0 0 0-5.12-1.28A20.32 20.32 0 0 0 816 608a50.88 50.88 0 0 1-41.28 18.4 59.04 59.04 0 0 1-41.28-19.2 17.6 17.6 0 0 0-12.48-5.76z" fill="#168DE6" p-id="4847"></path><path d="M784 753.44a32 32 0 1 1-32.96 32 32 32 0 0 1 32-32H784m0-32a64 64 0 1 0 64 64 64 64 0 0 0-64-64z" fill="#168DE6" p-id="4848"></path></svg>